<?xml version="1.0" standalone="no"?>
<!DOCTYPE svg PUBLIC "-//W3C//DTD SVG 20010904//EN"
 "http://www.w3.org/TR/2001/REC-SVG-20010904/DTD/svg10.dtd">
<svg version="1.0" xmlns="http://www.w3.org/2000/svg"
 width="512.000000pt" height="512.000000pt" viewBox="0 0 512.000000 512.000000"
 preserveAspectRatio="xMidYMid meet">

<g transform="translate(0.000000,512.000000) scale(0.100000,-0.100000)"
fill="#000000" stroke="none">
<path d="M129 5058 c-20 -11 -46 -38 -58 -58 -21 -37 -21 -48 -21 -522 l0
-485 23 -34 c28 -43 98 -79 154 -79 l43 0 2 -1692 3 -1693 24 -45 c32 -61 86
-116 146 -148 l50 -27 1217 -5 1216 -5 24 -30 c59 -76 150 -138 241 -166 55
-17 87 -21 166 -17 89 3 105 7 177 42 75 37 97 56 445 405 344 343 369 371
402 441 69 142 69 278 1 418 -66 135 -178 219 -336 250 -70 14 -86 14 -157 0
-86 -17 -163 -51 -219 -98 l-37 -30 -3 466 c-1 257 0 469 3 472 5 5 65 -10
564 -144 173 -47 342 -88 375 -91 179 -16 364 94 451 269 84 171 47 374 -94
518 -31 32 -83 71 -117 88 -38 19 -234 78 -525 158 -437 121 -469 128 -556
129 l-93 0 0 271 0 272 59 4 c44 3 68 11 94 31 69 53 68 41 65 576 -3 467 -4
480 -24 507 -11 15 -33 37 -48 48 l-27 21 -1797 2 -1797 3 -36 -22z m3561
-578 l0 -440 -1743 2 -1742 3 -3 438 -2 437 1745 0 1745 0 0 -440z m-220 -904
l0 -305 -59 -56 c-137 -131 -185 -326 -121 -497 27 -73 86 -155 137 -193 l42
-30 0 -112 1 -113 -225 0 -225 0 0 428 c0 476 0 471 -71 539 -69 65 -31 63
-998 63 -587 0 -889 -4 -914 -11 -47 -13 -111 -69 -140 -123 -21 -40 -22 -51
-25 -473 l-3 -433 -220 0 -219 0 0 810 0 810 1520 0 1520 0 0 -304z m504 -436
c103 -27 191 -51 194 -54 4 -5 -144 -585 -152 -593 -6 -6 -396 100 -431 118
-118 61 -181 191 -155 322 16 84 40 126 100 180 103 93 176 97 444 27z m-1128
-21 c18 -20 19 -51 19 -964 0 -913 -1 -944 -19 -964 l-19 -21 -878 0 -878 0
-20 26 c-21 27 -21 31 -21 959 0 928 0 932 21 959 l20 26 878 0 878 0 19 -21z
m1673 -139 c213 -56 249 -71 302 -127 85 -88 110 -207 68 -318 -45 -119 -162
-205 -281 -205 -65 0 -450 100 -446 115 44 180 155 585 159 585 4 0 93 -23
198 -50z m-3627 -1342 c3 -456 3 -464 25 -505 27 -51 82 -96 132 -112 54 -16
1778 -16 1832 0 55 17 108 65 135 123 l24 51 0 453 0 452 225 0 225 0 0 -394
0 -393 -269 -269 c-206 -206 -275 -282 -296 -323 -36 -72 -58 -182 -50 -248
l6 -53 -1164 0 -1164 0 -33 23 c-18 12 -43 35 -54 50 -21 28 -21 35 -24 818
l-2 789 224 0 225 0 3 -462z m3185 -209 c154 -58 231 -235 172 -396 -19 -50
-42 -79 -173 -211 l-151 -153 -218 219 -218 218 153 150 c128 126 162 154 208
172 73 28 154 28 227 1z m-479 -672 l213 -213 -158 -155 c-178 -175 -202 -189
-327 -189 -166 0 -290 126 -291 295 0 120 17 149 188 323 83 83 154 152 157
152 3 0 101 -96 218 -213z"/>
<path d="M641 4704 c-20 -25 -21 -40 -21 -216 0 -191 4 -218 39 -245 26 -20
70 -15 96 12 25 24 25 25 25 223 0 186 -1 201 -21 226 -16 20 -29 26 -59 26
-30 0 -43 -6 -59 -26z"/>
<path d="M1264 4709 c-17 -19 -19 -39 -19 -226 l0 -205 28 -24 c34 -29 66 -31
101 -3 l26 20 0 210 c0 196 -1 210 -20 229 -28 28 -90 27 -116 -1z"/>
<path d="M1894 4709 c-17 -19 -19 -41 -22 -187 -4 -190 2 -246 29 -273 25 -25
70 -24 103 2 l26 20 0 210 c0 196 -1 210 -20 229 -28 28 -90 27 -116 -1z"/>
<path d="M2520 4710 c-19 -19 -20 -33 -20 -229 l0 -210 26 -20 c34 -27 74 -27
102 -1 21 20 22 28 22 235 0 210 0 214 -22 229 -31 22 -84 20 -108 -4z"/>
<path d="M3140 4710 c-19 -19 -20 -33 -20 -225 0 -205 0 -206 25 -230 29 -30
74 -32 106 -6 24 19 24 21 24 229 0 192 -2 212 -19 231 -26 28 -88 29 -116 1z"/>
<path d="M2408 2898 c-9 -7 -24 -30 -34 -52 -34 -74 -116 -110 -379 -166 -208
-44 -306 -75 -400 -123 -280 -145 -361 -444 -195 -720 l41 -68 -29 -37 c-80
-104 -137 -219 -128 -256 11 -46 42 -67 89 -64 42 3 42 4 87 88 37 71 56 101
96 158 1 2 24 -10 50 -27 115 -70 262 -95 394 -67 161 34 297 132 410 296 196
287 247 599 148 908 -17 55 -40 105 -53 118 -26 26 -72 32 -97 12z m42 -310
c17 -97 7 -262 -20 -358 -46 -162 -155 -344 -253 -421 -28 -23 -81 -56 -117
-73 -59 -28 -74 -31 -160 -31 -87 0 -101 3 -164 33 l-70 33 100 100 c54 55
135 128 179 161 89 67 109 95 100 138 -8 36 -24 49 -67 56 -27 5 -44 -1 -90
-33 -82 -55 -210 -167 -268 -234 -28 -33 -56 -59 -61 -59 -6 0 -24 30 -42 68
-28 59 -32 77 -32 152 0 99 14 134 82 210 58 64 157 113 293 145 58 13 157 36
220 50 126 29 238 70 297 109 21 14 43 25 50 25 6 1 16 -29 23 -71z"/>
</g>
</svg>
