<?xml version="1.0" standalone="no"?>
<!DOCTYPE svg PUBLIC "-//W3C//DTD SVG 20010904//EN"
 "http://www.w3.org/TR/2001/REC-SVG-20010904/DTD/svg10.dtd">
<svg version="1.0" xmlns="http://www.w3.org/2000/svg"
 width="512.000000pt" height="512.000000pt" viewBox="0 0 512.000000 512.000000"
 preserveAspectRatio="xMidYMid meet">

<g transform="translate(0.000000,512.000000) scale(0.100000,-0.100000)"
fill="#000000" stroke="none">
<path d="M3245 4924 c-821 -44 -1492 -298 -1920 -728 -439 -442 -697 -1146
-721 -1971 l-6 -200 -293 -295 c-257 -258 -294 -300 -301 -333 -14 -80 33
-155 111 -176 26 -7 181 -11 434 -11 l393 0 117 -108 c269 -252 498 -422 764
-571 446 -250 897 -364 1307 -331 619 50 1275 388 1841 951 137 136 158 171
145 243 -9 49 -100 152 -263 298 -455 407 -900 662 -1363 778 -131 33 -302 60
-381 60 -30 0 -71 3 -92 6 l-37 7 43 46 c404 435 644 1103 676 1879 9 241 2
352 -25 389 -41 55 -70 64 -221 67 -76 2 -169 2 -208 0z m157 -394 c-9 -326
-67 -682 -157 -955 -81 -247 -184 -448 -331 -645 -328 -442 -899 -715 -1658
-795 -72 -7 -132 -12 -133 -11 -1 1 66 70 150 153 l152 152 289 20 c317 21
316 21 364 91 43 64 21 156 -50 201 -30 18 -45 20 -156 16 l-124 -4 164 163
163 163 288 20 c284 19 288 20 324 46 86 66 81 189 -10 246 -29 18 -45 20
-155 16 l-124 -4 290 291 c248 248 292 297 301 332 16 58 4 101 -39 144 -43
43 -86 54 -144 39 -36 -9 -104 -74 -524 -492 -393 -392 -483 -476 -478 -452 3
17 8 102 12 191 5 133 4 166 -9 190 -35 67 -106 101 -174 82 -47 -13 -101 -68
-107 -111 -3 -18 -13 -176 -21 -352 -9 -176 -18 -329 -20 -340 -2 -11 -133
-148 -291 -305 l-286 -285 6 91 c23 323 117 709 244 992 274 613 764 975 1537
1135 202 42 535 78 675 73 l34 -1 -2 -95z m-178 -2315 c131 -17 301 -59 426
-104 219 -80 528 -258 755 -436 103 -81 293 -245 332 -287 l23 -24 -63 -60
c-254 -247 -607 -490 -903 -622 -490 -218 -908 -244 -1386 -85 -324 107 -725
346 -1008 600 -12 11 22 13 201 13 l216 0 199 -176 c109 -97 219 -185 243
-196 97 -45 201 23 201 132 0 58 -19 88 -107 169 l-78 71 230 0 230 0 210
-185 c230 -203 254 -217 327 -196 78 24 119 94 103 179 -5 30 -23 53 -93 119
l-87 82 410 3 c377 3 412 4 440 21 53 33 70 65 70 135 0 62 -1 65 -42 103
l-42 39 -693 0 -693 1 90 81 c172 157 203 190 210 231 16 84 -27 156 -106 177
-75 20 -93 9 -379 -250 l-265 -239 -403 -1 c-231 0 -402 4 -400 9 2 5 36 36
76 70 451 375 890 580 1357 635 82 9 297 4 399 -9z m-1989 -427 c-62 -53 -207
-188 -257 -240 l-37 -38 -211 0 c-115 0 -210 3 -210 8 0 4 66 73 148 154 l147
146 174 1 c96 1 177 4 180 6 2 3 29 5 60 5 l56 0 -50 -42z"/>
</g>
</svg>
