<?xml version="1.0" standalone="no"?>
<!DOCTYPE svg PUBLIC "-//W3C//DTD SVG 20010904//EN"
 "http://www.w3.org/TR/2001/REC-SVG-20010904/DTD/svg10.dtd">
<svg version="1.0" xmlns="http://www.w3.org/2000/svg"
 width="512.000000pt" height="512.000000pt" viewBox="0 0 512.000000 512.000000"
 preserveAspectRatio="xMidYMid meet">

<g transform="translate(0.000000,512.000000) scale(0.100000,-0.100000)"
fill="#000000" stroke="none">
<path d="M1569 4832 c-66 -34 -113 -99 -129 -178 -7 -33 -10 -121 -8 -222 3
-156 5 -170 28 -210 32 -56 91 -92 165 -99 l56 -6 -3 -145 -3 -145 -273 -123
c-151 -68 -290 -135 -309 -150 -41 -31 -89 -104 -103 -156 -7 -23 -10 -540
-10 -1436 0 -1398 0 -1400 21 -1457 39 -105 119 -185 224 -224 56 -21 60 -21
1228 -19 l1172 3 57 27 c163 76 237 229 227 467 -5 89 -23 121 -69 121 -49 0
-57 -22 -62 -170 -3 -90 -10 -147 -20 -171 -24 -55 -73 -104 -128 -128 l-49
-21 -1154 2 -1154 3 -49 30 c-33 21 -60 48 -81 85 l-33 54 0 368 0 368 109 0
108 0 6 -81 c9 -135 73 -235 189 -296 l53 -28 389 -3 c354 -3 390 -1 407 14
24 21 24 66 1 87 -15 14 -66 16 -382 19 -331 3 -368 5 -402 22 -50 24 -104 86
-117 133 -15 52 -15 1593 0 1646 13 49 63 105 114 128 38 17 88 19 858 19 785
0 819 -1 855 -19 48 -25 87 -66 106 -113 13 -31 16 -88 16 -328 0 -277 1 -291
20 -310 26 -26 64 -26 90 0 18 18 20 33 20 185 l0 165 115 0 115 0 -2 -232 -3
-232 -190 -66 c-104 -36 -211 -78 -236 -93 -65 -39 -142 -118 -175 -182 -16
-30 -34 -55 -40 -55 -29 0 -369 126 -503 187 -87 39 -93 40 -124 10 -45 -41
-97 -281 -97 -443 l0 -94 -95 0 -95 0 0 198 c0 180 -2 200 -18 215 -16 15 -46
17 -215 17 l-197 0 0 215 0 215 179 0 c174 0 227 7 243 33 4 7 8 101 8 210 l0
197 220 0 220 0 0 -197 c0 -109 4 -203 8 -210 16 -26 69 -33 243 -33 l179 0 0
-145 c0 -142 1 -147 25 -170 13 -14 29 -25 35 -25 16 0 53 21 62 34 4 6 8 99
8 207 0 177 -2 197 -18 212 -16 15 -46 17 -215 17 l-196 0 -3 201 c-3 197 -3
201 -27 220 -22 18 -43 19 -321 19 -269 0 -300 -2 -319 -17 -20 -17 -21 -28
-23 -218 l-3 -200 -200 -3 c-190 -2 -201 -3 -217 -23 -16 -19 -18 -50 -18
-324 l0 -304 26 -20 c25 -20 40 -21 220 -21 l194 0 0 -198 c0 -180 2 -200 18
-215 16 -14 43 -17 168 -17 l149 -1 44 -92 c36 -77 57 -105 125 -172 67 -67
99 -90 186 -133 127 -63 254 -97 420 -112 105 -10 125 -9 145 4 24 16 42 64
72 196 8 36 17 70 18 77 2 6 23 14 47 18 80 13 202 57 293 103 175 92 299 250
341 438 26 118 16 322 -25 478 -17 65 -38 127 -47 137 -20 23 -69 24 -104 4
-14 -8 -28 -14 -32 -15 -4 0 -8 278 -10 618 l-3 617 -33 67 c-54 109 -71 120
-494 309 l-168 74 0 146 0 146 51 6 c97 12 156 61 180 150 7 25 10 111 7 221
-3 179 -3 182 -33 235 -16 29 -43 64 -60 77 -74 56 -36 54 -919 54 l-814 0
-53 -28z m1696 -124 c47 -37 55 -72 55 -248 0 -158 -1 -161 -25 -185 l-24 -25
-831 0 -831 0 -24 25 c-24 24 -25 27 -25 185 0 176 8 211 55 248 l28 22 797 0
797 0 28 -22z m-185 -723 l0 -135 -139 0 c-139 0 -140 0 -160 -27 -24 -30 -20
-58 11 -85 17 -16 42 -18 178 -18 l159 0 258 -116 c315 -141 332 -151 363
-206 l25 -43 0 -340 0 -340 -111 -3 -111 -3 -5 86 c-9 142 -78 248 -196 303
l-57 27 -842 3 c-838 2 -842 2 -900 -19 -88 -32 -174 -124 -202 -214 -12 -37
-21 -94 -21 -126 l0 -59 -110 0 -110 0 0 346 c0 339 0 347 22 386 12 21 36 47
53 58 16 10 151 73 299 139 l269 121 331 0 c372 0 376 1 376 65 0 64 -7 65
-347 65 l-303 0 0 135 0 135 635 0 635 0 0 -135z m-1750 -2000 l0 -555 -110 0
-110 0 0 555 0 555 110 0 110 0 0 -555z m2660 -66 c24 -117 26 -290 5 -374
-49 -185 -195 -324 -415 -393 -126 -39 -116 -43 -124 45 -4 42 -9 88 -12 102
-4 24 1 29 76 64 124 58 290 227 290 295 0 29 -34 62 -65 62 -18 0 -38 -17
-79 -69 -64 -81 -118 -128 -183 -163 -80 -43 -88 -43 -111 -5 -12 18 -41 53
-66 77 -25 25 -46 50 -46 55 0 21 43 91 78 128 53 56 103 82 248 131 150 51
271 96 334 124 24 12 46 19 48 18 2 -2 12 -46 22 -97z m-1290 -222 c58 -24
170 -66 250 -93 225 -75 304 -141 350 -291 15 -50 20 -93 20 -182 0 -64 -3
-126 -6 -139 -6 -21 -10 -18 -44 35 -85 136 -221 248 -367 305 -88 34 -118 33
-147 -5 -33 -45 -10 -72 97 -116 155 -63 264 -163 343 -315 l37 -69 -64 7
c-186 21 -370 98 -473 199 -116 113 -162 247 -153 441 4 104 33 266 46 266 3
0 53 -20 111 -43z"/>
</g>
</svg>
