<?xml version="1.0" standalone="no"?>
<!DOCTYPE svg PUBLIC "-//W3C//DTD SVG 20010904//EN"
 "http://www.w3.org/TR/2001/REC-SVG-20010904/DTD/svg10.dtd">
<svg version="1.0" xmlns="http://www.w3.org/2000/svg"
 width="512.000000pt" height="512.000000pt" viewBox="0 0 512.000000 512.000000"
 preserveAspectRatio="xMidYMid meet">

<g transform="translate(0.000000,512.000000) scale(0.100000,-0.100000)"
fill="#000000" stroke="none">
<path d="M2432 5105 c-387 -88 -579 -532 -377 -870 40 -66 122 -155 173 -186
l32 -21 0 -105 0 -105 -55 4 c-113 9 -196 92 -228 228 -31 130 -96 228 -196
294 -103 69 -105 69 -621 77 -270 4 -485 11 -512 17 -25 6 -154 38 -285 72
-132 33 -252 60 -267 60 -72 0 -101 -51 -92 -160 12 -151 69 -301 159 -419 48
-62 51 -71 59 -144 16 -163 100 -337 218 -452 33 -33 96 -105 139 -160 143
-183 273 -292 446 -375 173 -82 307 -112 500 -112 244 0 478 75 660 211 28 20
56 41 63 45 9 6 12 -31 12 -168 l0 -176 -77 0 c-182 -1 -337 -64 -463 -189
-130 -129 -193 -277 -193 -456 0 -189 77 -365 160 -365 36 0 80 29 94 63 13
32 10 47 -32 162 -29 80 -29 196 0 280 67 191 236 305 452 305 l59 0 0 -444 0
-443 -162 -6 c-129 -4 -176 -10 -222 -26 -339 -119 -437 -542 -183 -792 51
-50 110 -86 191 -116 29 -11 99 -17 230 -22 l190 -6 14 -65 c45 -213 138 -472
182 -512 50 -46 123 -29 153 34 39 86 92 246 124 378 20 80 37 151 39 158 5
18 145 16 192 -3 126 -53 166 -215 80 -320 -36 -43 -97 -74 -146 -75 -40 0
-88 -23 -102 -49 -13 -25 -13 -77 0 -102 33 -61 151 -62 269 -3 305 152 297
580 -14 725 -50 24 -82 31 -156 36 l-92 6 7 81 c3 45 6 170 6 279 l0 197 75 0
c105 0 166 15 275 67 134 64 229 159 293 293 53 111 67 170 67 284 0 347 -264
622 -617 643 l-93 6 0 174 c0 137 3 173 13 167 6 -4 35 -25 62 -45 182 -136
416 -211 660 -211 193 0 327 30 500 112 173 83 303 192 446 375 43 55 106 127
139 160 119 116 206 297 217 452 5 63 11 81 33 107 101 115 172 291 186 458 9
106 -21 158 -92 158 -15 0 -142 -29 -283 -64 -141 -36 -288 -69 -328 -75 -42
-7 -237 -11 -470 -11 -434 0 -479 -5 -575 -57 -61 -33 -157 -134 -186 -195
-11 -25 -30 -81 -41 -124 -11 -43 -33 -96 -48 -118 -40 -57 -111 -98 -178
-104 l-55 -4 0 105 0 105 33 21 c50 31 132 120 172 186 125 209 105 475 -52
670 -61 75 -181 157 -270 185 -88 28 -227 34 -311 15z m223 -201 c245 -63 362
-332 243 -557 -117 -219 -417 -268 -601 -98 -220 203 -127 577 163 655 72 19
123 19 195 0z m-2265 -608 c268 -70 253 -69 755 -75 447 -6 461 -7 500 -28 80
-43 119 -100 145 -213 47 -204 230 -360 421 -360 l49 0 0 -163 0 -163 -62 -60
c-89 -86 -142 -126 -229 -173 -155 -84 -281 -114 -464 -113 -193 1 -354 52
-523 165 l-62 42 140 5 c135 5 141 6 166 32 37 37 37 99 0 136 -25 26 -31 27
-184 34 -200 8 -261 24 -373 99 -92 62 -187 180 -213 266 l-7 22 63 -26 c86
-35 171 -51 314 -59 159 -9 225 0 258 33 36 36 36 100 1 135 -32 32 -68 38
-234 38 -154 0 -222 14 -326 68 -126 65 -252 213 -291 341 -18 59 -18 63 4 57
9 -2 78 -21 152 -40z m4510 37 c0 -24 -33 -108 -61 -159 -47 -84 -159 -192
-244 -236 -104 -54 -172 -68 -326 -68 -166 0 -202 -6 -234 -38 -35 -35 -35
-99 1 -135 33 -33 99 -42 258 -33 143 8 228 24 314 59 l63 26 -7 -22 c-26 -86
-121 -204 -213 -266 -112 -75 -173 -91 -373 -99 -153 -7 -159 -8 -184 -34 -37
-37 -37 -99 0 -136 25 -26 31 -27 166 -32 l140 -5 -62 -42 c-169 -113 -330
-164 -523 -165 -183 -1 -309 29 -464 113 -87 47 -140 87 -228 173 l-63 60 0
163 0 163 49 0 c191 0 374 156 421 360 26 113 65 170 145 213 39 21 53 22 500
28 508 6 497 5 785 84 141 38 140 38 140 28z m-2240 -1574 l0 -1189 -100 0
-100 0 0 1189 0 1189 100 0 100 0 0 -1189z m423 -329 c252 -94 362 -399 230
-636 -76 -136 -227 -224 -385 -224 l-68 0 0 446 0 447 83 -6 c46 -3 108 -15
140 -27z m-823 -1248 c0 -104 3 -230 6 -280 l7 -92 -140 0 c-174 0 -226 14
-293 76 -68 63 -94 128 -88 219 5 76 21 115 70 170 63 72 130 92 316 94 l122
1 0 -188z m400 -4 c0 -221 -12 -378 -40 -528 -27 -142 -55 -246 -62 -235 -9
15 -35 119 -53 211 -28 144 -45 346 -45 547 l0 197 100 0 100 0 0 -192z"/>
<path d="M2125 191 c-64 -27 -81 -110 -32 -158 60 -61 162 -19 162 67 0 66
-72 116 -130 91z"/>
</g>
</svg>
